<?xml version="1.0" encoding="UTF-8" standalone="no"?>
<!-- Created with Inkscape (http://www.inkscape.org/) -->

<svg
   xmlns:dc="http://purl.org/dc/elements/1.1/"
   xmlns:cc="http://creativecommons.org/ns#"
   xmlns:rdf="http://www.w3.org/1999/02/22-rdf-syntax-ns#"
   xmlns:svg="http://www.w3.org/2000/svg"
   xmlns="http://www.w3.org/2000/svg"
   xmlns:xlink="http://www.w3.org/1999/xlink"
   xmlns:sodipodi="http://sodipodi.sourceforge.net/DTD/sodipodi-0.dtd"
   xmlns:inkscape="http://www.inkscape.org/namespaces/inkscape"
   width="210mm"
   height="297mm"
   viewBox="0 0 210 297"
   version="1.1"
   id="svg8"
   inkscape:version="0.92.4 (5da689c313, 2019-01-14)"
   sodipodi:docname="tood.svg">
  <defs
     id="defs2">
    <linearGradient
       inkscape:collect="always"
       id="linearGradient4686">
      <stop
         style="stop-color:#f9f9f9;stop-opacity:1"
         offset="0"
         id="stop4682" />
      <stop
         style="stop-color:#ffffff;stop-opacity:0.99069768"
         offset="1"
         id="stop4684" />
    </linearGradient>
    <linearGradient
       inkscape:collect="always"
       id="linearGradient4678">
      <stop
         style="stop-color:#784421;stop-opacity:1;"
         offset="0"
         id="stop4674" />
      <stop
         style="stop-color:#502d16;stop-opacity:1"
         offset="1"
         id="stop4676" />
    </linearGradient>
    <linearGradient
       inkscape:collect="always"
       id="linearGradient4670">
      <stop
         style="stop-color:#784421;stop-opacity:1;"
         offset="0"
         id="stop4666" />
      <stop
         style="stop-color:#502d16;stop-opacity:1"
         offset="1"
         id="stop4668" />
    </linearGradient>
    <radialGradient
       inkscape:collect="always"
       xlink:href="#linearGradient4670"
       id="radialGradient4672"
       cx="114.55645"
       cy="107.29764"
       fx="114.55645"
       fy="107.29764"
       r="6.8350379"
       gradientTransform="matrix(1,0,0,1.1492954,0,-15.551206)"
       gradientUnits="userSpaceOnUse" />
    <radialGradient
       inkscape:collect="always"
       xlink:href="#linearGradient4678"
       id="radialGradient4680"
       cx="132.761"
       cy="-91.429024"
       fx="132.761"
       fy="-91.429024"
       r="4.842963"
       gradientTransform="matrix(1,0,0,1.6458647,0,56.797725)"
       gradientUnits="userSpaceOnUse" />
    <radialGradient
       inkscape:collect="always"
       xlink:href="#linearGradient4686"
       id="radialGradient4688"
       cx="78.362549"
       cy="135.9938"
       fx="78.362549"
       fy="135.9938"
       r="12.644742"
       gradientTransform="matrix(1.454442,-0.79791481,0.30966079,0.5644508,-75.231937,116.5132)"
       gradientUnits="userSpaceOnUse" />
    <radialGradient
       inkscape:collect="always"
       xlink:href="#linearGradient4686"
       id="radialGradient4735"
       cx="107.38358"
       cy="73.23909"
       fx="107.38358"
       fy="73.23909"
       r="23.249712"
       gradientTransform="matrix(0.99910444,0.06110017,-0.09067134,1.3313199,6.736855,-32.289122)"
       gradientUnits="userSpaceOnUse" />
  </defs>
  <sodipodi:namedview
     id="base"
     pagecolor="#ffffff"
     bordercolor="#666666"
     borderopacity="1.0"
     inkscape:pageopacity="0.0"
     inkscape:pageshadow="2"
     inkscape:zoom="0.49497475"
     inkscape:cx="74.302273"
     inkscape:cy="637.19108"
     inkscape:document-units="mm"
     inkscape:current-layer="layer1"
     showgrid="false"
     inkscape:window-width="1366"
     inkscape:window-height="705"
     inkscape:window-x="-8"
     inkscape:window-y="-8"
     inkscape:window-maximized="1" />
  <metadata
     id="metadata5">
    <rdf:RDF>
      <cc:Work
         rdf:about="">
        <dc:format>image/svg+xml</dc:format>
        <dc:type
           rdf:resource="http://purl.org/dc/dcmitype/StillImage" />
        <dc:title></dc:title>
        <dc:publisher>
          <cc:Agent>
            <dc:title>Bielan Neres</dc:title>
          </cc:Agent>
        </dc:publisher>
      </cc:Work>
    </rdf:RDF>
  </metadata>
  <g
     inkscape:label="Camada 1"
     inkscape:groupmode="layer"
     id="layer1">
    <path
       style="opacity:1;fill:#ff0000;fill-opacity:1;stroke:#000000;stroke-width:0.36651832;stroke-linejoin:round;stroke-miterlimit:4;stroke-dasharray:none;stroke-opacity:1"
       d=""
       id="path868"
       inkscape:connector-curvature="0"
       transform="scale(0.26458333)" />
    <g
       id="g4769"
       transform="matrix(2.6707692,0,0,2.4748712,-115.04657,-126.04029)"
       inkscape:export-filename="C:\Users\Neres\Desktop\tood.png"
       inkscape:export-xdpi="96"
       inkscape:export-ydpi="96">
      <ellipse
         ry="7.8666282"
         rx="27.804874"
         cy="141.01395"
         cx="80.343567"
         id="path4698"
         style="opacity:1;fill:#808080;fill-opacity:0.9906977;stroke:none;stroke-width:0.33614573;stroke-linejoin:round;stroke-miterlimit:4;stroke-dasharray:none;stroke-opacity:1" />
      <path
         sodipodi:nodetypes="sssss"
         inkscape:connector-curvature="0"
         id="ellipse851"
         d="m 138.3982,-88.956067 c -0.27345,4.42457 -1.45012,8.896423 -4.28998,8.896422 -2.83985,10e-7 -4.03185,-3.439295 -4.90362,-7.800742 -1.12578,-5.632265 1.2679,-7.959631 4.34159,-7.961134 2.83983,-0.0014 5.17176,1.691699 4.85201,6.865454 z"
         style="opacity:1;fill:url(#radialGradient4680);fill-opacity:1;stroke:#000000;stroke-width:0.17984435;stroke-linejoin:round;stroke-miterlimit:4;stroke-dasharray:none;stroke-opacity:1"
         transform="matrix(-0.00643264,0.99997931,-0.99981063,-0.0194602,0,0)" />
      <ellipse
         transform="matrix(0.93558672,0.353097,-0.36537256,0.93086137,0,0)"
         ry="7.7543745"
         rx="6.7339344"
         cy="104.16402"
         cx="116.29236"
         id="path849"
         style="opacity:1;fill:url(#radialGradient4672);fill-opacity:1;stroke:#000000;stroke-width:0.20220704;stroke-linejoin:round;stroke-miterlimit:4;stroke-dasharray:none;stroke-opacity:1" />
      <path
         sodipodi:nodetypes="ccccccccccccc"
         inkscape:connector-curvature="0"
         id="path854"
         d="m 87.664065,114.224 3.407688,2.53906 c 0.811075,0.81239 1.371828,1.7967 0.868625,3.97564 l -0.534538,2.63928 c 0.506886,0.72511 0.91296,1.52583 0.367495,3.0402 l 0.434314,-1.16931 c 0.156831,-0.45349 0.891854,-0.44501 0.768398,0.90203 -0.156599,0.41188 -0.247784,1.58528 -1.937703,1.1359 -0.06719,0.63859 -0.423754,0.78524 -0.935445,0.66817 0.956652,-3.13263 0.196435,-6.20039 -0.506688,-9.07095 l 0.598988,-0.25636 -0.598988,0.25636 z"
         style="fill:#ffeeaa;stroke:#ffd42a;stroke-width:0.26458332px;stroke-linecap:butt;stroke-linejoin:miter;stroke-opacity:1" />
      <path
         sodipodi:nodetypes="cssscc"
         inkscape:connector-curvature="0"
         id="path842"
         d="m 90.626556,125.09476 c 0.427638,6.06676 -5.814102,10.95948 -12.677072,10.95948 -6.862971,0 -13.228316,-4.60157 -12.292872,-10.25789 0.966516,-5.84421 8.303049,-5.71431 15.166019,-5.71431 3.260684,0 5.782935,-0.32058 7.421395,0.10088 -0.605578,2.03254 2.81136,2.18985 2.38253,4.91184 z"
         style="opacity:1;fill:url(#radialGradient4688);fill-opacity:1;stroke:#000000;stroke-width:0.19092716;stroke-linejoin:round;stroke-miterlimit:4;stroke-dasharray:none;stroke-opacity:1" />
      <path
         sodipodi:nodetypes="ccccccccc"
         inkscape:connector-curvature="0"
         id="path834"
         d="m 66.051339,121.45368 c -0.950324,-0.0499 -1.664952,2.03778 -0.992187,2.48047 l 6.425594,1.79539 c 1.726959,0.62851 2.512827,-0.2069 3.118305,-1.32292 2.064042,-4.11049 1.898328,-8.22098 2.315104,-12.33147 l -3.165549,-0.66143 c 1.543246,0.17231 0.432693,6.28947 -0.905453,9.58965 -0.360791,0.87147 -0.710394,2.4463 -2.936387,1.65474 z"
         style="fill:#ffffff;stroke:#000000;stroke-width:0.26458332px;stroke-linecap:butt;stroke-linejoin:miter;stroke-opacity:1" />
      <path
         sodipodi:nodetypes="ccccccccccccccccccccc"
         inkscape:connector-curvature="0"
         id="path4563"
         d="m 69.405877,115.05171 -5.433409,-8.26823 c 0,0 -2.50409,0.28348 -3.519903,-1.44103 -0.440574,-0.13004 -0.794628,-0.11536 -1.79776,-0.0627 -0.837556,0.0327 -0.822183,-1.19257 -0.09138,-1.23821 l 1.440052,-0.26511 -1.889635,-1.38686 c -0.874873,-0.63561 -0.213411,-1.30108 0.543341,-0.99219 l 2.196986,0.89769 -2.14974,-1.77176 c -0.782889,-0.756478 -0.244504,-1.499061 0.73233,-1.086683 l 2.244233,1.181173 -1.133928,-1.582771 c -0.470038,-0.85126 0.31349,-1.403799 1.133928,-0.661458 l 1.937128,1.842629 c 0.453039,0.37111 0.873656,0.61253 1.063059,-0.0709 l 0.14174,-1.015808 c 0.161051,-0.735992 1.324364,-0.984739 1.535528,0.212612 l 0.330729,4.441226 7.06343,7.63039 c -0.360306,2.01824 -0.895935,3.90674 -4.346726,3.63802 z"
         style="fill:#ffeeaa;stroke:#ffcc00;stroke-width:0.26458332px;stroke-linecap:butt;stroke-linejoin:miter;stroke-opacity:1" />
      <path
         sodipodi:nodetypes="ccccccc"
         inkscape:connector-curvature="0"
         id="path832"
         d="m 73.752606,111.41372 0.944938,0.40157 c -0.411548,3.51833 -0.627663,6.97951 -2.462085,10.36953 -0.637653,0.9652 -1.876323,0.49213 -2.876828,0.3083 0,0 -3.472656,-0.82683 -3.307292,-1.03944 0.464067,-0.24995 3.555702,-6.42709 3.354541,-6.40194 3.158559,0.24765 4.200278,-1.31283 4.346726,-3.63802 z"
         style="fill:#0000ff;stroke:#000000;stroke-width:0.26458332px;stroke-linecap:butt;stroke-linejoin:miter;stroke-opacity:1" />
      <path
         sodipodi:nodetypes="cccccccc"
         inkscape:connector-curvature="0"
         id="path845"
         d="m 84.301938,112.64915 c 2.109455,3.57369 3.084277,7.33176 3.596327,11.26042 0.1999,0.73195 0.328063,1.55159 1.302938,1.33635 l 1.425353,-0.15116 c 0.329169,-0.14177 0.283588,-2.09024 -0.172526,-2.08722 -0.44129,0.2089 -0.850356,0.31633 -0.985557,-0.10023 -0.453727,-3.6903 -1.955149,-7.00641 -3.641545,-10.25647 z"
         style="fill:#ffffff;stroke:#000000;stroke-width:0.26458332px;stroke-linecap:butt;stroke-linejoin:miter;stroke-opacity:1" />
      <path
         transform="scale(0.26458333)"
         inkscape:connector-curvature="0"
         id="path864"
         d="m 288.14797,453.46282 c 0.1712,-0.54624 0.85246,-4.79943 1.14744,-7.16361 0.40835,-3.27288 0.71399,-6.66925 1.26871,-14.09836 0.45107,-6.04097 0.63592,-8.06537 0.74659,-8.17603 0.0331,-0.0331 0.44669,0.0564 0.91915,0.19882 2.57996,0.77774 5.89522,1.46317 9.06651,1.87451 1.39516,0.18097 2.64606,0.2295 5.93465,0.23024 4.36121,9.9e-4 5.22125,-0.0625 8.81276,-0.65062 1.09682,-0.17961 2.01318,-0.30536 2.03634,-0.27944 0.17723,0.19826 1.69421,2.96019 2.59195,4.71908 2.76862,5.4244 5.08,11.39096 6.87258,17.74081 0.68993,2.44396 1.34143,4.93841 1.34161,5.13678 5e-5,0.0569 -1.72487,0.0855 -3.83316,0.0636 -2.10829,-0.0219 -5.36133,0.0227 -7.229,0.099 -1.86766,0.0763 -9.17047,0.19085 -16.22847,0.25453 -7.058,0.0637 -12.98788,0.15474 -13.17752,0.20233 -0.29791,0.0748 -0.33464,0.0542 -0.27014,-0.15162 z"
         style="opacity:1;fill:#ffeeaa;fill-opacity:1;stroke:#000000;stroke-width:0.09162958;stroke-linejoin:round;stroke-miterlimit:4;stroke-dasharray:none;stroke-opacity:1" />
      <ellipse
         transform="matrix(0.96196724,0.27316484,-0.28658243,0.95805559,0,0)"
         ry="20.778"
         rx="23.144554"
         cy="58.872059"
         cx="106.28956"
         id="path826"
         style="opacity:1;fill:url(#radialGradient4735);fill-opacity:1;stroke:#000000;stroke-width:0.21031608;stroke-linejoin:round;stroke-miterlimit:4;stroke-dasharray:none;stroke-opacity:1" />
      <ellipse
         transform="rotate(18.530473)"
         ry="11.392096"
         rx="12.527989"
         cy="45.197544"
         cx="108.27701"
         id="path840"
         style="opacity:1;fill:#ff0000;fill-opacity:1;stroke:none;stroke-width:0.19253771;stroke-linejoin:round;stroke-miterlimit:4;stroke-dasharray:none;stroke-opacity:1" />
      <path
         inkscape:connector-curvature="0"
         id="path870"
         d="m 63.024096,89.618891 c -0.509199,-1.875967 -0.629537,-2.858989 -0.625867,-5.112557 0.004,-2.469046 0.180875,-3.575954 0.932191,-5.834512 0.517475,-1.555602 1.154398,-2.876933 2.093452,-4.342984 0.754658,-1.178174 1.0468,-1.48486 1.045546,-1.097595 -0.0011,0.310052 -3.049302,17.309713 -3.115821,17.376232 -0.02646,0.02646 -0.174736,-0.418401 -0.329501,-0.988584 z"
         style="opacity:1;fill:#ff0000;fill-opacity:1;stroke:none;stroke-width:0.09697463;stroke-linejoin:round;stroke-miterlimit:4;stroke-dasharray:none;stroke-opacity:1" />
      <path
         inkscape:connector-curvature="0"
         id="path872"
         d="m 102.86195,99.488945 c 0.0337,-0.110249 1.25922,-3.447777 2.72333,-7.416728 l 2.66203,-7.216278 0.0402,1.603616 c 0.11015,4.391668 -1.67976,9.022734 -4.8349,12.509349 -0.35859,0.396272 -0.6244,0.630291 -0.59068,0.520041 z"
         style="opacity:1;fill:#ff0000;fill-opacity:1;stroke:none;stroke-width:0.09697463;stroke-linejoin:round;stroke-miterlimit:4;stroke-dasharray:none;stroke-opacity:1" />
      <g
         transform="translate(0,0.52916667)"
         id="g912">
        <path
           style="opacity:1;fill:#ffeeaa;fill-opacity:1;stroke:#ffcc00;stroke-width:0.19199999;stroke-linejoin:round;stroke-miterlimit:4;stroke-dasharray:none;stroke-opacity:1"
           d="m 93.343885,100.75735 c 0.06682,7.56584 -5.584199,11.96031 -12.060537,11.96031 -6.476338,0 -15.15903,-4.91582 -10.214545,-17.158872 5.221351,-2.929121 16.283851,-3.112187 22.275082,5.198562 z"
           id="path4542"
           inkscape:connector-curvature="0"
           sodipodi:nodetypes="cscc" />
        <g
           id="g899">
          <ellipse
             transform="rotate(13.371585)"
             ry="2.5985863"
             rx="1.2402344"
             cy="77.965912"
             cx="97.995354"
             id="path4549"
             style="opacity:1;fill:#000000;fill-opacity:1;stroke:#000000;stroke-width:0.19199999;stroke-linejoin:round;stroke-miterlimit:4;stroke-dasharray:none;stroke-opacity:1" />
          <ellipse
             style="opacity:1;fill:#ffffff;fill-opacity:1;stroke:#000000;stroke-width:0.08939979;stroke-linejoin:round;stroke-miterlimit:4;stroke-dasharray:none;stroke-opacity:1"
             id="ellipse4551"
             cx="99.039734"
             cy="78.075569"
             rx="0.59071708"
             ry="1.1828562"
             transform="matrix(0.97541176,0.22039031,-0.24261387,0.97012294,0,0)" />
        </g>
        <g
           id="g895">
          <g
             id="g890">
            <ellipse
               transform="rotate(13.371585)"
               ry="2.5985863"
               rx="1.2402344"
               cy="78.297989"
               cx="108.34548"
               id="ellipse4557"
               style="opacity:1;fill:#000000;fill-opacity:0.98139535;stroke:#000000;stroke-width:0.19199999;stroke-linejoin:round;stroke-miterlimit:4;stroke-dasharray:none;stroke-opacity:1" />
            <ellipse
               style="opacity:1;fill:#ffffff;fill-opacity:0.98139535;stroke:#000000;stroke-width:0.08939979;stroke-linejoin:round;stroke-miterlimit:4;stroke-dasharray:none;stroke-opacity:1"
               id="ellipse4559"
               cx="109.39574"
               cy="78.523285"
               rx="0.59071708"
               ry="1.1828562"
               transform="matrix(0.97541176,0.22039031,-0.24261387,0.97012294,0,0)" />
          </g>
        </g>
        <g
           id="g886">
          <path
             sodipodi:nodetypes="cccc"
             inkscape:connector-curvature="0"
             id="path4545"
             d="m 76.114954,105.15346 c 2.644938,1.19239 5.548073,2.07125 9.07143,2.19698 0,0 -1.063059,3.89788 -5.055433,3.23643 -4.960936,-0.85045 -4.015997,-5.43341 -4.015997,-5.43341 z"
             style="fill:#000000;stroke:none;stroke-width:0.26458332px;stroke-linecap:butt;stroke-linejoin:miter;stroke-opacity:1" />
          <path
             transform="scale(0.26458333)"
             inkscape:connector-curvature="0"
             id="path862"
             d="m 302.71671,417.34674 c -5.27391,-0.98164 -9.09643,-3.13191 -11.70164,-6.58249 -0.73994,-0.98004 -0.76453,-1.04952 -0.45222,-1.27788 0.18165,-0.13283 1.06267,-0.4855 1.95783,-0.78372 6.26102,-2.08586 12.1879,-1.44448 17.1477,1.85565 1.69685,1.12905 4.78746,4.11852 4.70694,4.55291 -0.0705,0.38045 -2.69647,1.67722 -4.19697,2.07258 -1.64879,0.43442 -5.54588,0.51953 -7.46164,0.16295 z"
             style="opacity:1;fill:#800000;fill-opacity:1;stroke:#000000;stroke-width:0.12958379;stroke-linejoin:round;stroke-miterlimit:4;stroke-dasharray:none;stroke-opacity:1" />
        </g>
      </g>
      <path
         sodipodi:nodetypes="ccsssccccc"
         transform="scale(0.26458333)"
         inkscape:connector-curvature="0"
         id="path866"
         d="m 339.83255,464.85838 c -0.21316,-0.051 -0.56077,-0.19504 -0.77247,-0.3201 -0.35761,-0.21124 -0.39544,-0.3045 -0.53331,-1.31487 -1.30789,-9.58474 -4.67169,-19.5171 -10.94853,-32.32799 -1.06885,-2.1815 -2.49889,-3.9912 -2.46853,-4.02156 0.13622,-0.13622 2.03995,0.7415 2.87711,1.52332 4.28456,4.0013 8.29697,14.00013 13.23426,32.9794 0.45141,1.73526 0.7802,3.19233 0.73064,3.23795 -0.10185,0.0937 -1.34759,0.36932 -1.57998,0.34951 -0.0834,-0.007 -0.32603,-0.0547 -0.53919,-0.10566 z"
         style="opacity:1;fill:#0000ff;fill-opacity:0.99534882;stroke:#000000;stroke-width:0.84661418;stroke-linejoin:round;stroke-miterlimit:4;stroke-dasharray:none;stroke-opacity:1" />
      <path
         transform="scale(0.26458333)"
         inkscape:connector-curvature="0"
         id="path941"
         d="m 351.48321,396.9745 c 0,-0.11398 0.31089,-1.75928 0.69088,-3.65621 0.37998,-1.89692 0.7947,-5.0561 0.92158,-7.02038 l 0.23071,-3.57143 -2.33377,-2.89452 c -15.1563,-18.798 -40.91884,-27.54187 -66.58952,-22.60063 -4.72846,0.91016 -10.62788,2.84479 -13.81274,4.5297 l -2.5,1.32259 -1.49269,4.40936 c -0.82098,2.42514 -1.56868,4.48534 -1.66155,4.57821 -0.22429,0.22429 -1.58688,-3.44577 -2.27521,-6.12816 -0.75231,-2.93173 -0.45946,-8.48722 0.60775,-11.52924 4.4444,-12.6685 21.16683,-21.32718 42.67884,-22.09862 6.833,-0.24503 12.3553,0.23096 16.9746,1.46311 1.87175,0.49927 5.09889,1.1458 7.17143,1.43673 5.28916,0.74247 13.33599,3.63506 19.60397,7.04703 6.60141,3.59347 13.67273,9.43661 17.36739,14.35095 3.44326,4.57994 5.84683,10.99327 5.83819,15.57777 -0.0162,8.61001 -5.63275,16.8203 -14.99129,21.91439 -2.85573,1.55444 -6.42857,3.14916 -6.42857,2.86935 z"
         style="opacity:1;fill:#f9f9f9;fill-opacity:0.74883722;stroke:none;stroke-width:0.3023622;stroke-linejoin:round;stroke-miterlimit:4;stroke-dasharray:none;stroke-opacity:1" />
      <path
         transform="scale(0.26458333)"
         inkscape:connector-curvature="0"
         id="path4652"
         d="m 341.25486,413.32225 c -0.006,-0.0908 0.39782,-0.88633 0.89721,-1.76777 2.00257,-3.53467 3.63293,-8.09549 4.56773,-12.77787 0.5624,-2.81707 0.63169,-10.78839 0.11352,-13.05786 -0.29952,-1.3118 -0.58248,-1.76712 -2.20748,-3.55223 -6.33756,-6.96199 -15.03388,-12.95579 -23.20599,-15.99438 -6.3813,-2.37272 -11.47065,-3.31677 -18.88266,-3.50262 -10.05232,-0.25206 -18.9173,1.18409 -31.18302,5.05174 -2.39596,0.7555 -4.35874,1.30462 -4.36175,1.22026 -0.003,-0.0844 0.41971,-1.32172 0.93937,-2.74968 1.06061,-2.91449 1.0213,-2.87651 4.61023,-4.45447 4.24281,-1.86546 9.70141,-3.38423 15.5428,-4.32455 3.97717,-0.64022 14.02341,-0.77831 18.56155,-0.25513 18.1365,2.09086 33.40314,10.2541 43.91661,23.48269 2.04289,2.57047 2.02636,2.48986 1.53808,7.50331 -0.76189,7.82275 -3.09605,14.59462 -7.05612,20.4712 -1.6448,2.44083 -3.76607,5.07549 -3.79008,4.70736 z"
         style="opacity:1;fill:#f9ebab;fill-opacity:1;stroke:#ffeeaa;stroke-width:0.21380237;stroke-linejoin:round;stroke-miterlimit:4;stroke-dasharray:none;stroke-opacity:1" />
      <path
         transform="scale(0.26458333)"
         inkscape:connector-curvature="0"
         id="path4656"
         d="m 326.75225,451.29823 c -0.42378,-2.2865 -1.31985,-5.80769 -2.06216,-8.10347 -2.67448,-8.27145 -5.57636,-11.96223 -10.77059,-13.69866 -0.91215,-0.30493 -3.46237,-0.87474 -4.42029,-0.98765 -0.20835,-0.0246 0.0758,-0.0868 0.63134,-0.13827 4.06344,-0.37655 5.45982,-0.56821 8.46003,-1.16113 0.37456,-0.074 0.38885,-0.056 1.27441,1.60579 2.63153,4.93821 5.03766,10.76774 6.79145,16.45414 0.65573,2.12612 2.0988,7.30794 2.0988,7.53645 0,0.0566 -0.38354,0.10278 -0.85231,0.10273 l -0.85232,-1e-4 z"
         style="opacity:1;fill:#f9ebab;fill-opacity:1;stroke:#ffeeaa;stroke-width:0.10690118;stroke-linejoin:round;stroke-miterlimit:4;stroke-dasharray:none;stroke-opacity:1" />
      <path
         transform="scale(0.26458333)"
         inkscape:connector-curvature="0"
         id="path4660"
         d="m 294.76555,513.03142 c 10.11387,-3.04206 16.63017,-5.83393 21.99165,-9.42218 12.61593,-8.44339 17.06645,-21.20244 13.73216,-39.36827 -0.52904,-2.88233 -1.69496,-7.84965 -2.28447,-9.73283 -0.0995,-0.318 9.7e-4,-0.44194 0.3584,-0.44194 0.41153,0 0.56532,0.31407 0.89647,1.8309 0.42537,1.94834 1.38523,7.31987 2.02521,11.33338 0.51246,3.2138 1.21995,5.04845 2.31895,6.01338 1.01058,0.8873 1.6282,0.94314 5.56995,0.50361 1.32801,-0.14808 2.47677,-0.20702 2.55282,-0.13097 0.27021,0.27022 0.0482,4.97057 -0.32856,6.95681 -3.42587,18.05973 -22.91842,32.4111 -44.81228,32.99301 l -4.16687,0.11074 z"
         style="opacity:1;fill:#f9f9f9;fill-opacity:1;stroke:none;stroke-width:0.21380237;stroke-linejoin:round;stroke-miterlimit:4;stroke-dasharray:none;stroke-opacity:1" />
      <path
         transform="scale(0.26458333)"
         inkscape:connector-curvature="0"
         id="path4664"
         d="m 264.56851,409.92592 c -11.27601,-12.62371 -12.87713,-14.46535 -12.86452,-14.79701 0.008,-0.20834 0.14206,-0.71142 0.29808,-1.11794 0.23199,-0.60448 0.31233,-0.708 0.44103,-0.56821 0.0866,0.094 5.83341,6.3098 12.77078,13.81287 6.93737,7.50307 12.68865,13.7359 12.78063,13.85073 0.14012,0.17492 0.12266,0.43005 -0.10772,1.57347 -0.15122,0.75058 -0.31194,1.43211 -0.35715,1.5145 -0.0491,0.0895 -5.26789,-5.65568 -12.96113,-14.26841 z"
         style="opacity:1;fill:#f9ebab;fill-opacity:1;stroke:none;stroke-width:0.10690118;stroke-linejoin:round;stroke-miterlimit:4;stroke-dasharray:none;stroke-opacity:1" />
    </g>
  </g>
</svg>
